<?xml version="1.0" standalone="no"?>
<!DOCTYPE svg PUBLIC "-//W3C//DTD SVG 20010904//EN"
 "http://www.w3.org/TR/2001/REC-SVG-20010904/DTD/svg10.dtd">
<svg version="1.0" xmlns="http://www.w3.org/2000/svg"
 width="512.000000pt" height="512.000000pt" viewBox="0 0 512.000000 512.000000"
 preserveAspectRatio="xMidYMid meet">

<g transform="translate(0.000000,512.000000) scale(0.100000,-0.100000)"
fill="#000000" stroke="none">
<path d="M3128 5004 c-40 -21 -58 -63 -58 -137 0 -35 -7 -106 -16 -158 -81
-469 -409 -853 -864 -1009 -90 -30 -248 -60 -323 -60 -118 0 -164 -26 -174
-99 -5 -36 -2 -44 28 -74 33 -33 36 -34 139 -40 464 -26 866 -290 1074 -704
82 -161 121 -307 135 -501 8 -113 9 -116 40 -144 42 -38 90 -38 132 0 32 28
32 31 40 143 16 243 83 440 217 644 103 157 317 342 500 434 148 75 377 131
531 131 58 0 65 2 97 34 40 40 44 75 14 123 -23 38 -67 53 -157 53 -74 0 -232
29 -323 60 -87 29 -231 100 -306 149 -325 215 -550 597 -570 966 -7 127 -18
162 -58 186 -37 23 -61 23 -98 3z m199 -914 c151 -222 372 -411 605 -519 l82
-38 -89 -42 c-149 -70 -277 -162 -411 -295 -133 -134 -218 -251 -291 -401
l-46 -96 -62 120 c-152 293 -368 509 -652 653 l-122 62 110 55 c147 75 274
166 389 281 115 116 201 234 277 385 l57 113 51 -101 c28 -56 74 -136 102
-177z"/>
<path d="M1233 3223 c-12 -2 -33 -17 -46 -33 -21 -24 -25 -42 -30 -132 -27
-439 -336 -746 -781 -775 -92 -6 -103 -9 -128 -34 -39 -39 -39 -99 0 -138 23
-24 39 -29 104 -35 216 -19 410 -110 575 -269 163 -157 257 -346 287 -576 11
-93 16 -107 40 -128 39 -34 99 -32 135 5 26 25 28 35 34 132 8 132 34 236 85
336 49 96 74 130 155 212 143 146 359 232 580 232 62 0 93 18 113 66 12 29 12
39 0 68 -20 48 -47 61 -156 75 -216 27 -394 116 -555 276 -159 159 -249 339
-275 550 -7 50 -16 100 -20 112 -15 37 -72 64 -117 56z m71 -610 c79 -156 266
-346 431 -438 36 -20 65 -39 65 -41 0 -2 -24 -16 -52 -30 -84 -42 -167 -106
-249 -190 -82 -86 -121 -139 -163 -222 l-27 -54 -44 71 c-110 178 -237 306
-414 415 l-72 44 58 32 c158 88 294 220 383 370 29 50 55 90 56 90 2 0 15 -21
28 -47z"/>
<path d="M3731 2222 c-26 -25 -28 -35 -34 -130 -14 -229 -96 -413 -248 -557
-78 -74 -106 -94 -195 -139 -101 -50 -202 -76 -329 -83 -103 -6 -112 -8 -137
-34 -42 -42 -41 -101 2 -141 21 -20 43 -28 87 -33 282 -30 521 -161 686 -378
104 -135 165 -287 191 -470 14 -107 33 -140 87 -152 38 -9 94 19 107 53 6 15
13 67 17 115 25 352 238 629 564 736 61 20 131 31 236 36 28 1 57 3 66 3 33 4
69 52 69 94 0 77 -33 101 -149 112 -148 15 -317 79 -447 171 -86 62 -217 204
-270 294 -78 133 -134 316 -134 438 0 83 -109 125 -169 65z m193 -706 c83
-115 282 -288 389 -337 15 -7 27 -15 27 -18 0 -3 -38 -26 -83 -51 -116 -63
-281 -229 -356 -358 l-54 -92 -28 50 c-101 185 -273 354 -484 476 -16 9 -10
15 50 48 166 91 320 249 404 414 l22 44 35 -57 c19 -32 54 -85 78 -119z"/>
</g>
</svg>
