<?xml version="1.0" standalone="no"?>
<!DOCTYPE svg PUBLIC "-//W3C//DTD SVG 20010904//EN"
 "http://www.w3.org/TR/2001/REC-SVG-20010904/DTD/svg10.dtd">
<svg version="1.0" xmlns="http://www.w3.org/2000/svg"
 width="984.000000pt" height="879.000000pt" viewBox="0 0 984.000000 879.000000"
 preserveAspectRatio="xMidYMid meet">

<g transform="translate(0.000000,879.000000) scale(0.100000,-0.100000)"
fill="#000000" stroke="none">
<path d="M1253 8470 c-95 -20 -203 -102 -248 -190 -12 -25 -67 -209 -120 -408
-105 -393 -112 -441 -80 -537 32 -93 108 -180 189 -216 23 -9 70 -25 106 -35
36 -9 66 -18 67 -19 2 -1 -38 -154 -88 -341 -50 -186 -121 -454 -159 -594 -37
-140 -132 -493 -210 -785 -137 -512 -142 -533 -138 -610 3 -67 10 -90 38 -143
35 -66 99 -131 162 -163 20 -10 130 -44 245 -75 874 -234 815 -220 899 -205
82 15 141 47 202 108 64 64 80 99 127 273 20 74 51 191 70 260 42 154 142 530
234 875 38 143 104 388 146 545 435 1617 412 1519 379 1630 -39 130 -136 219
-284 259 -41 11 -203 54 -360 96 -157 42 -310 83 -340 91 -30 8 -197 53 -370
99 -326 87 -396 100 -467 85z m782 -566 c363 -97 662 -178 664 -180 4 -4 -157
-616 -164 -622 -4 -4 -139 31 -868 227 -262 70 -480 131 -484 135 -7 7 -4 22
74 316 85 321 82 312 101 306 9 -3 314 -85 677 -182z m-281 -995 c105 -27 298
-79 428 -115 131 -35 240 -64 243 -64 12 0 0 -50 -104 -438 -149 -554 -255
-948 -302 -1127 -77 -287 -170 -630 -173 -632 -2 -2 -104 24 -227 57 -123 33
-322 86 -441 117 -169 45 -218 62 -218 74 0 9 22 99 49 200 27 101 70 263 96
359 25 96 77 290 115 430 38 140 78 289 89 330 132 499 223 837 226 848 6 17
9 17 219 -39z"/>
<path d="M4474 8396 c-97 -19 -135 -32 -229 -78 -229 -114 -391 -314 -460
-567 -9 -31 -18 -105 -21 -166 -21 -398 233 -754 621 -871 79 -24 107 -27 235
-28 122 -1 158 3 223 22 161 46 281 116 396 231 110 111 178 228 223 388 29
105 31 314 4 417 -86 323 -312 551 -631 638 -92 25 -267 32 -361 14z m301
-397 c79 -25 126 -54 192 -120 103 -102 155 -259 133 -403 -39 -262 -288 -448
-544 -407 -158 25 -291 122 -359 261 -94 192 -59 406 89 553 131 130 312 173
489 116z"/>
<path d="M5935 7763 c-42 -22 -64 -43 -84 -78 -14 -27 -17 -95 -21 -595 l-5
-564 -165 -96 c-400 -233 -571 -330 -582 -330 -7 0 -35 13 -63 29 -107 60
-204 116 -290 166 -308 180 -396 229 -538 298 -201 97 -263 111 -461 104 -160
-5 -263 -30 -389 -93 -270 -136 -445 -356 -526 -661 -297 -1110 -336 -1257
-376 -1393 -20 -69 -74 -255 -120 -415 -76 -264 -126 -436 -230 -795 -20 -69
-88 -305 -151 -524 -64 -220 -170 -585 -236 -810 -112 -383 -121 -418 -125
-516 -4 -76 -1 -124 11 -173 64 -272 286 -473 561 -509 165 -21 344 41 464
162 114 114 95 61 411 1155 248 860 280 968 284 972 2 2 64 -36 138 -84 75
-48 208 -135 296 -193 90 -59 161 -112 162 -120 0 -9 -18 -83 -41 -165 -74
-274 -200 -748 -235 -883 -38 -151 -43 -232 -18 -339 52 -229 244 -420 471
-468 202 -43 415 19 561 163 107 106 135 163 203 417 22 83 73 274 114 425
197 735 226 843 255 945 67 236 24 451 -123 611 -70 77 -108 102 -452 299
-170 98 -317 185 -327 194 -15 15 -10 38 66 321 45 168 111 412 146 543 35
130 67 242 70 247 4 6 53 -18 116 -55 173 -103 268 -132 409 -122 132 10 156
20 502 220 111 64 204 117 207 117 3 0 6 -943 6 -2095 0 -1760 2 -2101 14
-2128 17 -39 71 -92 109 -106 88 -33 192 11 238 101 19 36 19 95 19 2246 l0
2209 156 89 c183 105 249 154 302 227 85 115 122 223 122 357 0 202 -102 388
-271 496 -57 36 -194 84 -241 84 -74 0 -68 -42 -68 497 0 484 0 486 -22 531
-33 65 -94 102 -167 102 -31 -1 -69 -8 -86 -17z m-1925 -1510 c69 -33 159 -79
200 -103 41 -24 104 -60 140 -80 36 -20 199 -114 364 -209 255 -148 306 -173
350 -178 59 -6 66 -2 326 148 91 53 242 140 335 194 94 54 224 130 290 168
105 62 127 71 180 74 77 5 137 -23 180 -85 26 -38 30 -53 30 -110 0 -122 -5
-126 -385 -344 -269 -155 -439 -253 -660 -381 -221 -129 -227 -131 -287 -131
-49 1 -69 10 -241 109 -299 173 -303 175 -362 175 -66 0 -115 -23 -150 -71
-28 -40 -41 -81 -149 -489 -177 -667 -256 -952 -282 -1018 -34 -85 -36 -121
-10 -177 31 -67 -17 -36 706 -452 99 -57 190 -114 204 -126 35 -32 71 -115 71
-165 0 -23 -15 -95 -34 -160 -19 -64 -62 -223 -96 -352 -34 -129 -68 -255 -75
-280 -8 -25 -33 -117 -56 -205 -117 -450 -178 -657 -200 -690 -97 -144 -319
-130 -399 25 -41 80 -39 95 75 520 220 820 245 917 245 940 -1 34 -32 100 -63
130 -14 14 -69 54 -124 88 -54 35 -244 159 -423 277 -437 287 -430 284 -513
306 -165 46 -304 160 -376 308 -52 107 -64 170 -59 295 5 103 18 155 404 1586
39 147 61 199 112 275 55 80 136 149 226 194 95 46 166 61 281 58 100 -3 101
-4 225 -64z m-1200 -2892 c36 -23 82 -49 103 -58 20 -9 37 -22 37 -29 0 -6
-11 -49 -24 -95 -13 -46 -68 -235 -121 -419 -268 -926 -310 -1069 -361 -1250
-31 -107 -65 -211 -76 -231 -49 -88 -163 -115 -266 -63 -28 14 -63 39 -77 56
-82 97 -90 185 -33 373 20 66 71 239 113 385 42 146 105 364 140 485 147 505
229 788 266 919 22 77 42 143 45 147 3 5 46 -33 97 -85 51 -51 121 -111 157
-135z"/>
<path d="M9717 3019 c-65 -32 -137 -62 -160 -66 -22 -3 -65 -19 -95 -35 -30
-15 -60 -28 -67 -28 -8 0 -35 -11 -61 -25 -26 -14 -57 -25 -68 -25 -22 0 -277
-107 -370 -155 -27 -14 -55 -25 -61 -25 -21 0 -179 -72 -211 -96 -17 -12 -44
-26 -60 -30 -16 -4 -47 -17 -69 -30 -22 -13 -74 -37 -115 -55 -41 -17 -95 -46
-120 -64 -25 -18 -59 -40 -77 -49 -18 -9 -43 -26 -57 -38 -13 -13 -46 -41 -72
-63 -85 -72 -138 -129 -181 -195 -84 -131 -114 -184 -139 -244 -36 -84 -99
-198 -127 -227 -13 -13 -51 -62 -84 -109 -34 -47 -71 -97 -84 -111 -66 -72
-92 -106 -109 -138 -10 -20 -29 -47 -43 -61 -13 -14 -45 -56 -70 -95 -26 -38
-68 -101 -94 -139 -27 -38 -60 -89 -74 -115 l-26 -46 -309 -6 c-170 -3 -354
-11 -409 -18 -55 -7 -183 -16 -285 -21 -102 -5 -221 -14 -265 -19 -47 -6 -709
-10 -1595 -10 -1277 -1 -1530 -4 -1610 -16 -57 -9 -171 -15 -285 -15 -104 -1
-210 -5 -235 -11 -25 -5 -85 -14 -135 -19 -49 -6 -162 -22 -250 -36 -252 -41
-423 -52 -777 -53 -213 -1 -337 -5 -355 -12 -16 -6 -131 -13 -270 -16 l-243
-6 0 -145 0 -145 277 5 c167 4 289 10 306 17 19 7 133 11 330 11 305 0 582 13
648 30 52 14 374 60 419 60 22 0 65 7 97 15 41 11 111 15 248 15 116 0 227 6
285 15 80 12 333 15 1610 16 861 0 1552 5 1600 10 47 5 166 14 265 19 99 5
227 15 285 21 58 7 258 15 445 18 309 5 342 8 368 25 15 10 27 21 27 25 0 3
16 24 36 45 20 22 44 58 54 81 10 23 42 76 71 118 30 42 69 101 88 130 18 30
48 71 67 91 19 21 43 54 53 74 11 20 32 51 48 68 56 61 79 90 147 184 38 52
75 99 82 105 20 15 109 176 149 267 97 224 258 391 475 493 30 15 87 42 125
61 39 19 77 34 86 34 9 0 36 14 60 32 43 31 191 97 217 98 7 0 32 11 55 24 68
39 299 136 342 143 21 3 63 19 93 35 30 15 60 28 67 28 8 0 35 11 61 25 26 14
58 25 71 25 28 0 173 68 179 85 3 6 3 81 2 167 l-3 157 -118 -60z"/>
</g>
</svg>
