<?xml version="1.0" standalone="no"?>
<!DOCTYPE svg PUBLIC "-//W3C//DTD SVG 20010904//EN"
 "http://www.w3.org/TR/2001/REC-SVG-20010904/DTD/svg10.dtd">
<svg version="1.0" xmlns="http://www.w3.org/2000/svg"
 width="512.000000pt" height="512.000000pt" viewBox="0 0 512.000000 512.000000"
 preserveAspectRatio="xMidYMid meet">

<g transform="translate(0.000000,512.000000) scale(0.100000,-0.100000)"
fill="#000000" stroke="none">
<path d="M667 3979 c-94 -22 -191 -92 -246 -178 -54 -84 -61 -123 -61 -367 l0
-221 -82 -5 c-129 -8 -201 -50 -251 -143 -21 -39 -22 -50 -25 -492 -2 -381 0
-462 13 -519 51 -221 243 -387 474 -410 60 -6 72 -9 68 -23 -3 -9 -24 -68 -46
-131 -44 -123 -48 -154 -27 -212 20 -55 56 -95 113 -124 48 -24 59 -26 167
-22 109 3 117 5 158 33 28 20 103 110 212 253 l169 222 1257 0 1257 0 169
-222 c109 -143 184 -233 212 -253 41 -28 49 -30 158 -33 108 -4 119 -2 169 23
64 31 111 94 121 163 6 39 0 64 -35 166 -24 67 -45 128 -48 137 -4 14 8 17 68
23 231 23 423 189 474 410 13 57 15 138 13 519 -3 442 -4 453 -25 492 -50 93
-122 135 -250 143 l-83 5 0 221 c0 244 -7 283 -61 367 -42 66 -100 116 -178
153 l-66 31 -809 3 c-721 2 -815 1 -865 -14 -71 -20 -114 -46 -173 -103 l-48
-45 -47 45 c-59 57 -102 82 -172 103 -47 14 -126 16 -553 16 -333 0 -506 -4
-519 -11 -44 -23 -44 -104 -1 -126 10 -4 247 -10 527 -13 499 -5 511 -5 550
-27 52 -28 89 -68 114 -123 20 -43 21 -64 21 -448 l0 -404 -37 30 c-54 42
-113 70 -185 87 -52 12 -174 15 -710 15 -610 0 -648 1 -648 18 0 34 -48 118
-88 154 -51 46 -122 68 -224 68 l-78 0 0 218 0 218 28 55 c30 60 91 112 150
129 20 5 106 10 190 10 149 0 154 1 177 25 32 31 33 74 2 103 -22 21 -32 22
-188 21 -90 -1 -181 -5 -202 -10z m3765 -149 c59 -17 120 -69 151 -129 l27
-55 0 -218 0 -218 -78 0 c-43 0 -101 -7 -128 -15 -87 -25 -160 -104 -179 -192
l-7 -33 -646 0 c-536 0 -658 -3 -710 -15 -72 -17 -131 -45 -184 -87 l-38 -30
0 404 c0 384 1 405 21 448 32 72 85 118 159 141 40 12 1569 11 1612 -1z
m-3742 -788 c59 -29 60 -32 60 -415 l0 -348 25 -24 24 -25 1406 0 c1392 0
1405 0 1425 20 30 30 27 83 -6 109 -26 21 -36 21 -505 21 l-479 0 0 85 c0 151
65 262 189 322 l56 28 668 3 667 3 0 -221 0 -220 -179 0 c-165 0 -180 -2 -205
-21 -33 -26 -36 -79 -6 -109 19 -19 33 -20 255 -20 l236 0 24 25 25 24 0 348
c0 383 1 386 60 415 30 15 65 18 238 18 226 0 260 -7 286 -59 23 -44 24 -837
1 -924 -37 -143 -152 -249 -300 -276 -83 -15 -4107 -15 -4190 0 -148 27 -263
133 -300 276 -23 87 -22 880 1 924 26 52 57 58 284 59 176 0 210 -3 240 -18z
m1601 -255 c124 -60 189 -171 189 -322 l0 -85 -790 0 -790 0 0 220 0 221 668
-3 667 -3 56 -28z m-1188 -1160 c-34 -55 -255 -336 -268 -341 -9 -3 -52 -6
-95 -6 -73 0 -80 2 -99 26 -12 15 -21 32 -21 38 0 6 24 75 52 154 l53 142 193
0 c155 0 191 -3 185 -13z m3345 -129 c28 -79 52 -148 52 -154 0 -6 -9 -23 -21
-38 -19 -24 -26 -26 -99 -26 -43 0 -86 3 -95 6 -13 5 -234 286 -268 341 -6 10
30 13 185 13 l193 0 53 -142z"/>
</g>
</svg>
