<?xml version="1.0" standalone="no"?>
<!DOCTYPE svg PUBLIC "-//W3C//DTD SVG 20010904//EN"
 "http://www.w3.org/TR/2001/REC-SVG-20010904/DTD/svg10.dtd">
<svg version="1.0" xmlns="http://www.w3.org/2000/svg"
 width="512.000000pt" height="512.000000pt" viewBox="0 0 512.000000 512.000000"
 preserveAspectRatio="xMidYMid meet">

<g transform="translate(0.000000,512.000000) scale(0.100000,-0.100000)"
fill="#000000" stroke="none">
<path d="M2513 5107 c-13 -7 -91 -105 -175 -217 -429 -578 -438 -591 -438
-622 0 -75 75 -127 137 -94 21 10 111 125 274 345 134 182 246 330 249 330 3
0 316 -419 695 -931 380 -512 709 -955 733 -984 l43 -54 -298 1 -298 0 -90
122 c-230 314 -459 662 -630 958 -78 137 -108 169 -155 169 -47 0 -77 -32
-155 -169 -171 -296 -400 -644 -630 -958 l-90 -122 -298 0 -297 -1 49 63 c26
34 141 187 255 340 188 254 206 282 206 318 0 32 -7 47 -30 71 -27 27 -36 30
-71 25 -22 -3 -46 -11 -54 -17 -8 -7 -122 -156 -252 -332 -131 -176 -256 -337
-279 -357 -143 -126 -330 -144 -516 -50 -75 38 -102 37 -144 -5 -66 -66 -35
-131 89 -190 89 -43 200 -66 312 -66 l85 0 0 -840 0 -840 -60 0 c-126 0 -140
-24 -140 -238 l0 -160 -106 -4 c-105 -3 -106 -3 -135 -36 l-29 -32 0 -230 0
-230 29 -32 29 -33 2226 -3 2226 -2 32 29 33 29 0 242 0 242 -33 29 c-31 28
-36 29 -132 29 l-100 0 0 161 c0 216 -14 239 -140 239 l-60 0 0 258 c0 286 -2
296 -63 325 -36 18 -38 18 -74 0 -61 -29 -63 -39 -63 -325 l0 -258 -100 0
-100 0 0 840 0 840 100 0 100 0 0 -252 c0 -281 2 -292 63 -321 36 -18 38 -18
74 0 61 29 63 40 63 321 l0 252 85 0 c112 0 223 23 312 66 124 59 155 124 89
190 -42 42 -69 43 -144 5 -191 -97 -381 -75 -524 59 -26 25 -390 506 -808
1070 -419 564 -771 1030 -783 1037 -28 16 -66 16 -94 0z m147 -1445 c109 -181
318 -496 438 -659 45 -62 82 -115 82 -118 0 -3 -279 -5 -620 -5 -341 0 -620 2
-620 5 0 3 37 56 82 118 120 163 329 478 438 659 52 87 97 158 100 158 3 0 48
-71 100 -158z m-1520 -1822 l0 -840 -100 0 -100 0 0 840 0 840 100 0 100 0 0
-840z m2640 0 l0 -840 -340 0 -340 0 0 388 c0 426 -3 454 -61 562 -40 74 -106
141 -204 205 -44 28 -93 68 -108 89 -35 45 -67 132 -67 181 0 50 -44 97 -92
98 -64 2 -108 -44 -108 -113 0 -44 -36 -130 -71 -173 -18 -21 -68 -62 -113
-91 -136 -88 -207 -185 -241 -328 -12 -50 -15 -141 -15 -440 l0 -378 -340 0
-340 0 0 840 0 840 1220 0 1220 0 0 -840z m-1179 244 c18 -20 71 -60 116 -90
94 -62 136 -108 163 -182 19 -49 20 -79 20 -432 l0 -380 -340 0 -340 0 0 375
c0 343 2 380 19 430 27 77 65 121 156 181 44 29 98 71 120 93 21 23 42 41 45
41 3 0 22 -16 41 -36z m1779 -1384 l0 -100 -1820 0 -1820 0 0 100 0 100 1820
0 1820 0 0 -100z m270 -400 l0 -100 -2090 0 -2090 0 0 100 0 100 2090 0 2090
0 0 -100z"/>
<path d="M1678 3991 c-27 -24 -33 -36 -33 -71 0 -35 6 -47 33 -71 44 -40 93
-40 133 0 62 62 20 171 -65 171 -25 0 -45 -9 -68 -29z"/>
<path d="M4245 1931 c-64 -27 -81 -110 -32 -158 60 -61 162 -19 162 67 0 66
-72 116 -130 91z"/>
</g>
</svg>
